<svg xmlns="http://www.w3.org/2000/svg" viewBox="0 0 42.91 67.39"><g fill="currentColor"><path d="M27.18 0a3.49 3.49 0 0 0-1.07.26c-.21.08-.47.22-.69.3s-2.62 1-3.19 1.18l-1.82.67a11.47 11.47 0 0 0-5.36 4.29C11.55 11.86 7.91 17 4.4 22.13l-.48.71-.72 1.06a41 41 0 0 1-1 1.42 7.33 7.33 0 0 0-.63 1.1c-.06.1-.16.33-.29.63l-.27.66a13.67 13.67 0 0 0-.72 2.89c0 .25 0 .51-.06.77a2.8 2.8 0 0 0 0 .29V38.47c0 .13.33.61.33.75 0 3.74.06 6.77.06 7.55 0 1-.29 1.72-.29 2.74 0 .05-.18.38-.18.42v2c0 2.37 1.64 4.37 1.62 6.75 0 .82-1.69 2.06-1.71 2.9v.46c0 .16.13.52.16.78a3.28 3.28 0 0 0 1.58 2.41 11.42 11.42 0 0 0 4.05 1.59l.92.2a6.89 6.89 0 0 0 2-.1l.33-.13c.38 0 .59.19.79.16s.48-.13.69-.16c1.83-.27 3.51-.92 5.35-1.18 3-.51 6-.58 9-1a19.33 19.33 0 0 1 2.74.25 8 8 0 0 0 1.71-.44 11.06 11.06 0 0 0 4.91-3.63l4.38-6.09c.18-.24.47-.68.71-1 1-1.33 1-1.35 1.12-1.57a7.39 7.39 0 0 0 .54-1 11.88 11.88 0 0 0 .6-1.49 13.39 13.39 0 0 0 .7-3.37v-.78c0-1.54-.29-3.1-.43-4.61l-1-10.48c-.24-2.48-.47-5-.72-7.45 0-.23-.06-.54-.1-.77A30.58 30.58 0 0 0 39 17.79c-.62-2.08-1.31-4-1.57-4.73-.32-.88-.63-1.72-1.2-3.21-.1-.26-1-2.62-1.27-3.21a11.84 11.84 0 0 0-2.44-3.36C31.2 2 29.68.38 27.78.05a3.17 3.17 0 0 0-.53 0z" fill="#fff"/><path d="M33.77 39.16C16.77 39.76 3.43 49 .1 51.91v6.87a29.48 29.48 0 0 0 0 3.76A3.68 3.68 0 0 0 .56 64l19.06-3.31a6.27 6.27 0 0 0 1.51-.46 11.64 11.64 0 0 0 1.61-.88 9.83 9.83 0 0 0 2.68-2.46c.68-1 3.62-5 4.09-5.68l2.2-3.06a9.09 9.09 0 0 0 .89-1.59 13.76 13.76 0 0 0 .69-1.9 14.65 14.65 0 0 0 .42-2 21.71 21.71 0 0 0 .12-2.73l-.06-.78"/><path d="M33.25 32.76l-.5-6.11c0-.66-.19-2.27-.33-4C14.2 25.54 4 34.41.19 38.47c0 4.07-.06 7.24-.06 8.11v3.35c3.62-3.62 14.24-11.62 33.33-14.65z"/><path d="M32.12 19l-.23-2.45a28.29 28.29 0 0 0-.71-3.23S28 3.07 27 0a3.76 3.76 0 0 0-.74.16l-.71.27-3.22 1.17-1.84.69A12 12 0 0 0 15 6.59C11.55 11.77 8 16.87 4.45 22l-.45.72-.72 1.06-1 1.41a8.1 8.1 0 0 0-.64 1.1c0 .1-.16.32-.29.62s-.18.44-.26.66a13 13 0 0 0-.77 2.88c0 .25-.06.51-.08.77a2.62 2.62 0 0 0 0 .28v4.53c4-4.28 14.66-13.21 31.93-17.08"/><path d="M42.48 41l-1-10.44-.73-7.42c0-.23-.07-.54-.1-.77A32.82 32.82 0 0 0 39.54 18c-.63-2.07-1.32-4-1.58-4.71-.33-.89-.63-1.72-1.21-3.2-.1-.26-1-2.62-1.28-3.2A11.74 11.74 0 0 0 33 3.52C31.75 2.27 30.19.61 28.39.2c.2.4.71 1.73.85 2.09.82 2.22 1.66 4.43 2.42 6.71.54 1.6 1.07 3.3 1.5 4.88.19.71.35 1.39.49 2a.58.58 0 0 1 0 .13 16.18 16.18 0 0 1 .26 1.6c0 .5.09.92.13 1.29v.19l.25 3.12v.5c0 .17 0 .35.05.53l.36 4.53.38 4.6v.41l.21 2.52v.63c0 .63.1 1.23.15 1.82l.12 1.53.19 2.3a8.18 8.18 0 0 1-.07 1.82 15.82 15.82 0 0 1-.43 2 15 15 0 0 1-.72 2 9.15 9.15 0 0 1-.93 1.65l-.93 1.28-.23.31-.21.3-.91 1.29c-.49.7-.89 1.24-1.23 1.71l-.9 1.25-2.12 3a10.33 10.33 0 0 1-2.8 2.55 11.54 11.54 0 0 1-1.67.92 6.72 6.72 0 0 1-1.56.48l-2.9.43L1.8 65.23A8.64 8.64 0 0 0 5.94 67l1 .18a11 11 0 0 0 3.26.19l.63-.09c1.85-.27 3.71-.5 5.56-.79 3-.47 6-.8 9-1.2l2.74-.38a7.79 7.79 0 0 0 1.71-.44 11.24 11.24 0 0 0 5-3.61l4.4-6.07.72-1c1-1.33 1-1.35 1.14-1.56.28-.44.53-1 .54-1 .14-.34.4-.86.6-1.48a13.31 13.31 0 0 0 .7-3.36 34.5 34.5 0 0 0-.46-5.39"/></g></svg>
